<svg xmlns="http://www.w3.org/2000/svg" viewBox="0 0 32 32" style="background-color: #faf0e4;">
  <!-- Fondo pixel art -->
  <rect x="0" y="0" width="32" height="32" fill="#faf0e4"/>
  
  <!-- Pattern de fondo pixelado -->
  <rect x="4" y="4" width="2" height="2" fill="#ff69b4" opacity="0.3"/>
  <rect x="8" y="2" width="2" height="2" fill="#60d9fa" opacity="0.3"/>
  <rect x="26" y="6" width="2" height="2" fill="#ff69b4" opacity="0.3"/>
  <rect x="24" y="26" width="2" height="2" fill="#60d9fa" opacity="0.3"/>
  <rect x="2" y="24" width="2" height="2" fill="#ff69b4" opacity="0.3"/>
  
  <!-- Letras SF en pixel art -->
  <!-- Letra S -->
  <rect x="8" y="10" width="2" height="2" fill="#ff69b4"/>
  <rect x="10" y="10" width="2" height="2" fill="#ff69b4"/>
  <rect x="12" y="10" width="2" height="2" fill="#ff69b4"/>
  <rect x="8" y="12" width="2" height="2" fill="#ff69b4"/>
  <rect x="10" y="14" width="2" height="2" fill="#ff69b4"/>
  <rect x="12" y="14" width="2" height="2" fill="#ff69b4"/>
  <rect x="14" y="16" width="2" height="2" fill="#ff69b4"/>
  <rect x="8" y="18" width="2" height="2" fill="#ff69b4"/>
  <rect x="10" y="18" width="2" height="2" fill="#ff69b4"/>
  <rect x="12" y="18" width="2" height="2" fill="#ff69b4"/>
  
  <!-- Letra F -->
  <rect x="18" y="10" width="2" height="2" fill="#60d9fa"/>
  <rect x="18" y="12" width="2" height="2" fill="#60d9fa"/>
  <rect x="18" y="14" width="2" height="2" fill="#60d9fa"/>
  <rect x="18" y="16" width="2" height="2" fill="#60d9fa"/>
  <rect x="18" y="18" width="2" height="2" fill="#60d9fa"/>
  <rect x="20" y="10" width="2" height="2" fill="#60d9fa"/>
  <rect x="22" y="10" width="2" height="2" fill="#60d9fa"/>
  <rect x="20" y="14" width="2" height="2" fill="#60d9fa"/>
  
  <!-- Corazón pixel -->
  <rect x="10" y="6" width="2" height="2" fill="#ff8071"/>
  <rect x="14" y="6" width="2" height="2" fill="#ff8071"/>
  <rect x="8" y="8" width="2" height="2" fill="#ff8071"/>
  <rect x="10" y="8" width="2" height="2" fill="#ff8071"/>
  <rect x="12" y="8" width="2" height="2" fill="#ff8071"/>
  <rect x="14" y="8" width="2" height="2" fill="#ff8071"/>
  <rect x="16" y="8" width="2" height="2" fill="#ff8071"/>
  
  <!-- Estrella pixel -->
  <rect x="22" y="22" width="2" height="2" fill="#60d9fa"/>
  <rect x="20" y="24" width="2" height="2" fill="#60d9fa"/>
  <rect x="22" y="24" width="2" height="2" fill="#60d9fa"/>
  <rect x="24" y="24" width="2" height="2" fill="#60d9fa"/>
  <rect x="22" y="26" width="2" height="2" fill="#60d9fa"/>
  
  <!-- Sparkles adicionales -->
  <rect x="6" y="22" width="2" height="2" fill="#ff69b4"/>
  <rect x="26" y="12" width="2" height="2" fill="#ff8071"/>
  <rect x="4" y="16" width="2" height="2" fill="#60d9fa"/>
</svg>
