<svg width="64" height="64" viewBox="0 0 64 64" fill="none" xmlns="http://www.w3.org/2000/svg">
  <!-- Fondo pixel art -->
  <rect x="0" y="0" width="64" height="64" fill="#faf0e4"/>
  
  <!-- Pattern de fondo pixelado -->
  <rect x="8" y="8" width="4" height="4" fill="#ff69b4" opacity="0.3"/>
  <rect x="16" y="4" width="4" height="4" fill="#60d9fa" opacity="0.3"/>
  <rect x="52" y="12" width="4" height="4" fill="#ff69b4" opacity="0.3"/>
  <rect x="48" y="52" width="4" height="4" fill="#60d9fa" opacity="0.3"/>
  <rect x="4" y="48" width="4" height="4" fill="#ff69b4" opacity="0.3"/>
  
  <!-- Borde exterior pixelado -->
  <rect x="0" y="0" width="64" height="4" fill="#ff69b4"/>
  <rect x="0" y="60" width="64" height="4" fill="#ff69b4"/>
  <rect x="0" y="0" width="4" height="64" fill="#ff69b4"/>
  <rect x="60" y="0" width="4" height="64" fill="#ff69b4"/>
  
  <!-- Letras SF en pixel art grande -->
  <!-- Letra S -->
  <rect x="16" y="20" width="4" height="4" fill="#ff69b4"/>
  <rect x="20" y="20" width="4" height="4" fill="#ff69b4"/>
  <rect x="24" y="20" width="4" height="4" fill="#ff69b4"/>
  <rect x="16" y="24" width="4" height="4" fill="#ff69b4"/>
  <rect x="20" y="28" width="4" height="4" fill="#ff69b4"/>
  <rect x="24" y="28" width="4" height="4" fill="#ff69b4"/>
  <rect x="28" y="32" width="4" height="4" fill="#ff69b4"/>
  <rect x="16" y="36" width="4" height="4" fill="#ff69b4"/>
  <rect x="20" y="36" width="4" height="4" fill="#ff69b4"/>
  <rect x="24" y="36" width="4" height="4" fill="#ff69b4"/>
  
  <!-- Letra F -->
  <rect x="36" y="20" width="4" height="4" fill="#60d9fa"/>
  <rect x="36" y="24" width="4" height="4" fill="#60d9fa"/>
  <rect x="36" y="28" width="4" height="4" fill="#60d9fa"/>
  <rect x="36" y="32" width="4" height="4" fill="#60d9fa"/>
  <rect x="36" y="36" width="4" height="4" fill="#60d9fa"/>
  <rect x="40" y="20" width="4" height="4" fill="#60d9fa"/>
  <rect x="44" y="20" width="4" height="4" fill="#60d9fa"/>
  <rect x="40" y="28" width="4" height="4" fill="#60d9fa"/>
  
  <!-- Corazón pixel -->
  <rect x="20" y="12" width="4" height="4" fill="#ff8071"/>
  <rect x="28" y="12" width="4" height="4" fill="#ff8071"/>
  <rect x="16" y="16" width="4" height="4" fill="#ff8071"/>
  <rect x="20" y="16" width="4" height="4" fill="#ff8071"/>
  <rect x="24" y="16" width="4" height="4" fill="#ff8071"/>
  <rect x="28" y="16" width="4" height="4" fill="#ff8071"/>
  <rect x="32" y="16" width="4" height="4" fill="#ff8071"/>
  
  <!-- Estrella pixel -->
  <rect x="44" y="44" width="4" height="4" fill="#60d9fa"/>
  <rect x="40" y="48" width="4" height="4" fill="#60d9fa"/>
  <rect x="44" y="48" width="4" height="4" fill="#60d9fa"/>
  <rect x="48" y="48" width="4" height="4" fill="#60d9fa"/>
  <rect x="44" y="52" width="4" height="4" fill="#60d9fa"/>
  
  <!-- Sparkles adicionales */
  <rect x="12" y="44" width="4" height="4" fill="#ff69b4"/>
  <rect x="52" y="24" width="4" height="4" fill="#ff8071"/>
  <rect x="8" y="32" width="4" height="4" fill="#60d9fa"/>
</svg>
    
    <!-- Sparkle inferior izquierdo -->
    <g transform="translate(16,48)">
      <circle cx="0" cy="0" r="1.5" fill="url(#sparkleGradient)"/>
      <path d="M0 -3 L0 3 M-3 0 L3 0" stroke="#FFFFFF" stroke-width="1.2" stroke-linecap="round"/>
    </g>
    
    <!-- Sparkle inferior derecho -->
    <g transform="translate(48,48)">
      <circle cx="0" cy="0" r="2" fill="url(#sparkleGradient)"/>
      <path d="M0 -4 L0 4 M-4 0 L4 0" stroke="#FFFFFF" stroke-width="1.5" stroke-linecap="round"/>
    </g>
  </g>
  
  <!-- Puntos decorativos minimalistas -->
  <g opacity="0.6">
    <circle cx="32" cy="10" r="1.5" fill="#FFFFFF"/>
    <circle cx="32" cy="54" r="1.5" fill="#FFFFFF"/>
    <circle cx="10" cy="32" r="1.5" fill="#FFFFFF"/>
    <circle cx="54" cy="32" r="1.5" fill="#FFFFFF"/>
  </g>
  
  <!-- Sombra sutil del texto -->
  <text x="32" y="43" text-anchor="middle" 
        font-family="system-ui, -apple-system, 'Segoe UI', sans-serif" 
        font-size="28" 
        font-weight="800" 
        fill="#FF1493" 
        opacity="0.3"
        letter-spacing="2px">SF</text>
</svg>
